<?xml version="1.0" encoding="UTF-8"?>
<svg xmlns="http://www.w3.org/2000/svg" xmlns:xlink="http://www.w3.org/1999/xlink" width="886.28pt" height="289pt" viewBox="0 0 886.28 289" version="1.1">
<g id="surface1">
<path style=" stroke:none;fill-rule:nonzero;fill:rgb(16.470337%,24.313354%,29.803467%);fill-opacity:1;" d="M 155.636719 58.527344 L 66.390625 147.777344 L 155.636719 237.019531 L 244.886719 147.777344 Z M 155.636719 112.269531 L 191.144531 147.777344 L 155.636719 183.28125 L 120.132812 147.777344 Z M 155.636719 112.269531 "/>
<path style=" stroke:none;fill-rule:nonzero;fill:rgb(28.234863%,47.450256%,45.097351%);fill-opacity:1;" d="M 234.972656 58.527344 L 145.722656 147.777344 L 234.972656 237.019531 L 324.21875 147.777344 Z M 234.972656 112.269531 L 270.480469 147.777344 L 234.972656 183.28125 L 199.464844 147.777344 Z M 234.972656 112.269531 "/>
<path style=" stroke:none;fill-rule:nonzero;fill:rgb(16.470337%,24.313354%,29.803467%);fill-opacity:1;" d="M 368.230469 71.558594 L 358.378906 71.558594 L 358.378906 79.644531 L 368.230469 79.644531 C 370.851562 79.644531 372.929688 78.335938 372.929688 75.640625 C 372.929688 72.867188 370.851562 71.558594 368.230469 71.558594 M 342.824219 58.007812 L 370.234375 58.007812 C 382.246094 58.007812 388.714844 66.015625 388.714844 75.640625 C 388.714844 85.1875 382.246094 93.195312 370.234375 93.195312 L 358.378906 93.195312 L 358.378906 109.363281 L 342.824219 109.363281 Z M 342.824219 58.007812 "/>
<path style=" stroke:none;fill-rule:nonzero;fill:rgb(16.470337%,24.313354%,29.803467%);fill-opacity:1;" d="M 393.796875 58.007812 L 432.757812 58.007812 L 432.757812 71.558594 L 409.351562 71.558594 L 409.351562 76.640625 L 432.21875 76.640625 L 432.21875 90.195312 L 409.351562 90.195312 L 409.351562 95.8125 L 432.757812 95.8125 L 432.757812 109.363281 L 393.796875 109.363281 Z M 393.796875 58.007812 "/>
<path style=" stroke:none;fill-rule:nonzero;fill:rgb(16.470337%,24.313354%,29.803467%);fill-opacity:1;" d="M 450.699219 71.558594 L 436.917969 71.558594 L 436.917969 58.007812 L 479.957031 58.007812 L 479.957031 71.558594 L 466.25 71.558594 L 466.25 109.363281 L 450.699219 109.363281 Z M 450.699219 71.558594 "/>
<path style=" stroke:none;fill-rule:nonzero;fill:rgb(16.470337%,24.313354%,29.803467%);fill-opacity:1;" d="M 510.527344 71.558594 L 501.054688 71.558594 L 501.054688 79.644531 L 510.527344 79.644531 C 513.144531 79.644531 515.609375 78.414062 515.609375 75.5625 C 515.609375 72.792969 513.144531 71.558594 510.527344 71.558594 M 506.675781 93.195312 L 501.054688 93.195312 L 501.054688 109.363281 L 485.5 109.363281 L 485.5 58.007812 L 512.914062 58.007812 C 524.925781 58.007812 531.390625 66.015625 531.390625 75.640625 C 531.390625 84.496094 526.234375 89.191406 522.152344 91.195312 L 531.46875 109.363281 L 513.757812 109.363281 Z M 506.675781 93.195312 "/>
<path style=" stroke:none;fill-rule:nonzero;fill:rgb(16.470337%,24.313354%,29.803467%);fill-opacity:1;" d="M 563.039062 70.867188 C 555.570312 70.867188 550.71875 76.566406 550.71875 83.726562 C 550.71875 90.886719 555.570312 96.585938 563.039062 96.585938 C 570.507812 96.585938 575.359375 90.886719 575.359375 83.726562 C 575.359375 76.566406 570.507812 70.867188 563.039062 70.867188 M 563.039062 57.164062 C 578.898438 57.164062 591.144531 67.941406 591.144531 83.726562 C 591.144531 99.511719 578.898438 110.289062 563.039062 110.289062 C 547.179688 110.289062 534.933594 99.511719 534.933594 83.726562 C 534.933594 67.941406 547.179688 57.164062 563.039062 57.164062 "/>
<path style=" stroke:none;fill-rule:nonzero;fill:rgb(16.470337%,24.313354%,29.803467%);fill-opacity:1;" d="M 596.6875 58.007812 L 612.242188 58.007812 L 612.242188 95.8125 L 631.722656 95.8125 L 631.722656 109.363281 L 596.6875 109.363281 Z M 596.6875 58.007812 "/>
<path style=" stroke:none;fill-rule:nonzero;fill:rgb(16.470337%,24.313354%,29.803467%);fill-opacity:1;" d="M 637.960938 58.007812 L 676.917969 58.007812 L 676.917969 71.558594 L 653.515625 71.558594 L 653.515625 76.640625 L 676.382812 76.640625 L 676.382812 90.195312 L 653.515625 90.195312 L 653.515625 95.8125 L 676.917969 95.8125 L 676.917969 109.363281 L 637.960938 109.363281 Z M 637.960938 58.007812 "/>
<path style=" stroke:none;fill-rule:nonzero;fill:rgb(16.470337%,24.313354%,29.803467%);fill-opacity:1;" d="M 683.851562 58.007812 L 699.636719 58.007812 L 699.636719 87.730469 C 699.636719 92.65625 702.871094 96.582031 709.261719 96.582031 C 715.574219 96.582031 718.808594 92.65625 718.808594 87.730469 L 718.808594 58.007812 L 734.59375 58.007812 L 734.59375 88.191406 C 734.59375 100.972656 726.585938 110.289062 709.261719 110.289062 C 691.9375 110.289062 683.851562 100.972656 683.851562 88.269531 Z M 683.851562 58.007812 "/>
<path style=" stroke:none;fill-rule:nonzero;fill:rgb(16.470337%,24.313354%,29.803467%);fill-opacity:1;" d="M 788.339844 78.488281 L 776.867188 109.363281 L 769.9375 109.363281 L 758.464844 78.488281 L 758.464844 109.363281 L 742.910156 109.363281 L 742.910156 58.007812 L 764.394531 58.007812 L 773.402344 82.648438 L 782.410156 58.007812 L 803.890625 58.007812 L 803.890625 109.363281 L 788.339844 109.363281 Z M 788.339844 78.488281 "/>
<path style=" stroke:none;fill-rule:nonzero;fill:rgb(28.234863%,47.450256%,45.097351%);fill-opacity:1;" d="M 353.835938 135.558594 L 340.050781 135.558594 L 340.050781 122.007812 L 383.09375 122.007812 L 383.09375 135.558594 L 369.386719 135.558594 L 369.386719 173.363281 L 353.835938 173.363281 Z M 353.835938 135.558594 "/>
<path style=" stroke:none;fill-rule:nonzero;fill:rgb(28.234863%,47.450256%,45.097351%);fill-opacity:1;" d="M 413.660156 135.558594 L 404.191406 135.558594 L 404.191406 143.644531 L 413.660156 143.644531 C 416.28125 143.644531 418.742188 142.414062 418.742188 139.5625 C 418.742188 136.792969 416.28125 135.558594 413.660156 135.558594 M 409.8125 157.195312 L 404.191406 157.195312 L 404.191406 173.363281 L 388.636719 173.363281 L 388.636719 122.007812 L 416.046875 122.007812 C 428.058594 122.007812 434.527344 130.015625 434.527344 139.640625 C 434.527344 148.496094 429.367188 153.191406 425.289062 155.195312 L 434.605469 173.363281 L 416.894531 173.363281 Z M 409.8125 157.195312 "/>
<path style=" stroke:none;fill-rule:nonzero;fill:rgb(28.234863%,47.450256%,45.097351%);fill-opacity:1;" d="M 458.9375 153.808594 L 469.101562 153.808594 L 464.019531 137.253906 Z M 473.257812 167.359375 L 454.78125 167.359375 L 452.929688 173.367188 L 435.300781 173.367188 L 454.242188 122.007812 L 473.796875 122.007812 L 492.738281 173.367188 L 475.105469 173.367188 Z M 473.257812 167.359375 "/>
<path style=" stroke:none;fill-rule:nonzero;fill:rgb(28.234863%,47.450256%,45.097351%);fill-opacity:1;" d="M 518.457031 159.816406 C 526.234375 159.816406 530.851562 154.117188 530.851562 147.648438 C 530.851562 140.71875 526.851562 135.558594 518.535156 135.558594 L 511.066406 135.558594 L 511.066406 159.816406 Z M 495.511719 122.007812 L 518.457031 122.007812 C 534.625 122.007812 546.636719 131.25 546.636719 147.648438 C 546.636719 164.046875 534.625 173.367188 518.535156 173.367188 L 495.511719 173.367188 Z M 495.511719 122.007812 "/>
<path style=" stroke:none;fill-rule:nonzero;fill:rgb(28.234863%,47.450256%,45.097351%);fill-opacity:1;" d="M 552.183594 122.007812 L 567.738281 122.007812 L 567.738281 173.363281 L 552.183594 173.363281 Z M 552.183594 122.007812 "/>
<path style=" stroke:none;fill-rule:nonzero;fill:rgb(28.234863%,47.450256%,45.097351%);fill-opacity:1;" d="M 591.605469 147.339844 L 591.605469 173.363281 L 576.054688 173.363281 L 576.054688 122.007812 L 592.070312 122.007812 L 609.933594 146.339844 L 609.933594 122.007812 L 625.484375 122.007812 L 625.484375 173.363281 L 610.546875 173.363281 Z M 591.605469 147.339844 "/>
<path style=" stroke:none;fill-rule:nonzero;fill:rgb(28.234863%,47.450256%,45.097351%);fill-opacity:1;" d="M 659.289062 121.160156 C 671.53125 121.160156 678.617188 127.9375 681.851562 134.558594 L 668.761719 141.257812 C 667.296875 138.101562 663.910156 134.867188 659.289062 134.867188 C 651.820312 134.867188 646.816406 140.566406 646.816406 147.726562 C 646.816406 154.886719 651.820312 160.585938 659.289062 160.585938 C 662.214844 160.585938 665.679688 159.507812 667.296875 158.273438 L 667.296875 156.425781 L 657.75 156.425781 L 657.75 142.875 L 682.773438 142.875 L 682.773438 163.894531 C 677.074219 170.207031 669.375 174.289062 659.289062 174.289062 C 643.734375 174.289062 631.03125 164.125 631.03125 147.726562 C 631.03125 131.25 643.734375 121.160156 659.289062 121.160156 "/>
<path style=" stroke:none;fill-rule:nonzero;fill:rgb(16.470337%,24.313354%,29.803467%);fill-opacity:1;" d="M 368.230469 199.558594 L 358.378906 199.558594 L 358.378906 207.644531 L 368.230469 207.644531 C 370.851562 207.644531 372.929688 206.335938 372.929688 203.640625 C 372.929688 200.871094 370.851562 199.558594 368.230469 199.558594 M 342.824219 186.007812 L 370.234375 186.007812 C 382.246094 186.007812 388.714844 194.015625 388.714844 203.640625 C 388.714844 213.1875 382.246094 221.195312 370.234375 221.195312 L 358.378906 221.195312 L 358.378906 237.367188 L 342.824219 237.367188 Z M 342.824219 186.007812 "/>
<path style=" stroke:none;fill-rule:nonzero;fill:rgb(16.470337%,24.313354%,29.803467%);fill-opacity:1;" d="M 393.796875 186.007812 L 409.351562 186.007812 L 409.351562 223.816406 L 428.828125 223.816406 L 428.828125 237.363281 L 393.796875 237.363281 Z M 393.796875 186.007812 "/>
<path style=" stroke:none;fill-rule:nonzero;fill:rgb(16.470337%,24.313354%,29.803467%);fill-opacity:1;" d="M 453.164062 217.808594 L 463.324219 217.808594 L 458.246094 201.253906 Z M 467.484375 231.359375 L 449.003906 231.359375 L 447.15625 237.367188 L 429.523438 237.367188 L 448.464844 186.007812 L 468.023438 186.007812 L 486.964844 237.367188 L 469.332031 237.367188 Z M 467.484375 231.359375 "/>
<path style=" stroke:none;fill-rule:nonzero;fill:rgb(16.470337%,24.313354%,29.803467%);fill-opacity:1;" d="M 496.128906 199.558594 L 482.347656 199.558594 L 482.347656 186.007812 L 525.386719 186.007812 L 525.386719 199.558594 L 511.679688 199.558594 L 511.679688 237.367188 L 496.128906 237.367188 Z M 496.128906 199.558594 "/>
<path style=" stroke:none;fill-rule:nonzero;fill:rgb(16.470337%,24.313354%,29.803467%);fill-opacity:1;" d="M 530.929688 186.007812 L 569.890625 186.007812 L 569.890625 199.5625 L 546.484375 199.5625 L 546.484375 204.640625 L 569.351562 204.640625 L 569.351562 218.195312 L 546.484375 218.195312 L 546.484375 237.363281 L 530.929688 237.363281 Z M 530.929688 186.007812 "/>
<path style=" stroke:none;fill-rule:nonzero;fill:rgb(16.470337%,24.313354%,29.803467%);fill-opacity:1;" d="M 601.847656 198.867188 C 594.378906 198.867188 589.527344 204.566406 589.527344 211.726562 C 589.527344 218.886719 594.378906 224.585938 601.847656 224.585938 C 609.316406 224.585938 614.167969 218.886719 614.167969 211.726562 C 614.167969 204.566406 609.316406 198.867188 601.847656 198.867188 M 601.847656 185.164062 C 617.707031 185.164062 629.953125 195.941406 629.953125 211.726562 C 629.953125 227.511719 617.707031 238.289062 601.847656 238.289062 C 585.988281 238.289062 573.742188 227.511719 573.742188 211.726562 C 573.742188 195.941406 585.988281 185.164062 601.847656 185.164062 "/>
<path style=" stroke:none;fill-rule:nonzero;fill:rgb(16.470337%,24.313354%,29.803467%);fill-opacity:1;" d="M 660.519531 199.558594 L 651.050781 199.558594 L 651.050781 207.644531 L 660.519531 207.644531 C 663.136719 207.644531 665.601562 206.414062 665.601562 203.566406 C 665.601562 200.792969 663.136719 199.558594 660.519531 199.558594 M 656.671875 221.195312 L 651.050781 221.195312 L 651.050781 237.367188 L 635.496094 237.367188 L 635.496094 186.007812 L 662.90625 186.007812 C 674.917969 186.007812 681.386719 194.015625 681.386719 203.640625 C 681.386719 212.496094 676.226562 217.191406 672.148438 219.195312 L 681.460938 237.367188 L 663.753906 237.367188 Z M 656.671875 221.195312 "/>
<path style=" stroke:none;fill-rule:nonzero;fill:rgb(16.470337%,24.313354%,29.803467%);fill-opacity:1;" d="M 733.128906 206.488281 L 721.65625 237.363281 L 714.730469 237.363281 L 703.257812 206.488281 L 703.257812 237.363281 L 687.703125 237.363281 L 687.703125 186.007812 L 709.183594 186.007812 L 718.191406 210.648438 L 727.199219 186.007812 L 748.683594 186.007812 L 748.683594 237.363281 L 733.128906 237.363281 Z M 733.128906 206.488281 "/>
</g>
</svg>
